<?xml version="1.0" standalone="no"?>
<!DOCTYPE svg PUBLIC "-//W3C//DTD SVG 20010904//EN"
 "http://www.w3.org/TR/2001/REC-SVG-20010904/DTD/svg10.dtd">
<svg version="1.0" xmlns="http://www.w3.org/2000/svg"
 width="260.000000pt" height="260.000000pt" viewBox="0 0 260.000000 260.000000"
 preserveAspectRatio="xMidYMid meet">
<metadata>
Created by potrace 1.14, written by Peter Selinger 2001-2017
</metadata>
<g transform="translate(0.000000,260.000000) scale(0.100000,-0.100000)"
fill="#000000" stroke="none">
<path d="M584 2396 c-54 -25 -116 -82 -142 -131 -49 -90 -46 -39 -49 -1034
l-3 -934 21 -45 c17 -34 32 -49 65 -64 61 -27 65 -25 296 144 10 7 33 23 50
36 18 13 110 78 203 146 94 67 191 136 217 154 l46 32 63 -43 c35 -24 210
-141 388 -261 338 -229 346 -233 410 -206 14 6 37 27 51 48 l25 37 2 926 c3
883 2 929 -16 981 -10 30 -26 68 -34 84 -22 42 -84 102 -131 127 -41 22 -44
22 -726 25 l-685 2 -51 -24z m1016 -439 c80 -22 150 -104 164 -192 2 -16 5
-175 5 -352 l1 -323 69 0 c60 0 69 -2 67 -17 -3 -17 -24 -18 -274 -19 -261 -2
-272 -1 -272 17 0 16 8 19 45 19 36 0 45 4 46 18 3 84 -2 648 -6 674 -12 69
-48 94 -110 75 -41 -13 -67 -39 -98 -96 -51 -92 -59 -146 -63 -418 l-4 -253
44 0 c25 0 47 -4 50 -8 16 -26 -19 -29 -276 -30 -256 0 -268 1 -268 19 0 17 8
19 68 19 l67 0 -1 403 c-1 221 -2 407 -3 412 0 6 -29 9 -66 8 -58 -1 -65 0
-65 18 0 10 3 19 8 20 4 0 105 1 225 2 l217 2 1 -30 c1 -16 1 -70 0 -120 l-1
-90 31 63 c47 95 113 156 199 183 33 11 156 8 200 -4z"/>
</g>
</svg>
