<?xml version="1.0" encoding="UTF-8" standalone="no"?>
<svg
   xmlns:dc="http://purl.org/dc/elements/1.1/"
   xmlns:cc="http://creativecommons.org/ns#"
   xmlns:rdf="http://www.w3.org/1999/02/22-rdf-syntax-ns#"
   xmlns:svg="http://www.w3.org/2000/svg"
   xmlns="http://www.w3.org/2000/svg"
   xmlns:sodipodi="http://sodipodi.sourceforge.net/DTD/sodipodi-0.dtd"
   xmlns:inkscape="http://www.inkscape.org/namespaces/inkscape"
   class="sun"
   height="91.93"
   width="100"
   version="1.1"
   id="svg4"
   sodipodi:docname="beacker.svg"
   inkscape:version="0.92.1 r15371">
  <metadata
     id="metadata10">
    <rdf:RDF>
      <cc:Work
         rdf:about="">
        <dc:format>image/svg+xml</dc:format>
        <dc:type
           rdf:resource="http://purl.org/dc/dcmitype/StillImage" />
      </cc:Work>
    </rdf:RDF>
  </metadata>
  <defs
     id="defs8" />
  <sodipodi:namedview
     pagecolor="#ffffff"
     bordercolor="#666666"
     borderopacity="1"
     objecttolerance="10"
     gridtolerance="10"
     guidetolerance="10"
     inkscape:pageopacity="0"
     inkscape:pageshadow="2"
     inkscape:window-width="1920"
     inkscape:window-height="991"
     id="namedview6"
     showgrid="false"
     inkscape:zoom="3.7926636"
     inkscape:cx="-11.748749"
     inkscape:cy="2.5600614"
     inkscape:window-x="-9"
     inkscape:window-y="-9"
     inkscape:window-maximized="1"
     inkscape:current-layer="svg4" />
  <path
     d="m 42.928625,7.297858 v 23.666074 a 14.143072,14.143072 0 0 1 -4.14392,9.999152 L 27.578678,52.169112 a 46.412848,46.412848 0 0 1 24.000793,4.775644 39.199882,39.199882 0 0 0 26.933124,2.998331 L 79.856187,59.608368 61.215618,40.963084 A 14.143072,14.143072 0 0 1 57.071697,30.963932 V 7.297858 a 111.32484,111.32484 0 0 0 -14.143072,0 z M 64.143234,7.94844 A 3.535768,3.535768 0 0 0 64.581669,0.90047503 117.09049,117.09049 0 0 0 50.000161,3.3029683e-5 118.08522,118.08522 0 0 0 35.418654,0.90047503 3.535768,3.535768 0 0 0 35.857089,7.94844 v 23.015492 a 7.0715361,7.0715361 0 0 1 -2.074317,4.997219 L 4.1153205,65.633317 c -7.6372589,7.641973 -4.2570647,21.096749 6.9348205,23.006064 12.662764,2.168604 25.679104,3.290621 38.95002,3.290621 13.275631,0 26.287257,-1.126731 38.950021,-3.285907 C 100.13735,86.730066 103.52697,73.27529 95.880287,65.633317 L 66.217551,35.965866 a 7.0715361,7.0715361 0 0 1 -2.074317,-5.001934 z"
     id="path2"
     style="fill-rule:evenodd;stroke-width:46.76970291"
     inkscape:connector-curvature="0" />
</svg>
