<?xml version="1.0" encoding="UTF-8" standalone="no"?>
<svg
   xmlns:dc="http://purl.org/dc/elements/1.1/"
   xmlns:cc="http://creativecommons.org/ns#"
   xmlns:rdf="http://www.w3.org/1999/02/22-rdf-syntax-ns#"
   xmlns:svg="http://www.w3.org/2000/svg"
   xmlns="http://www.w3.org/2000/svg"
   xmlns:sodipodi="http://sodipodi.sourceforge.net/DTD/sodipodi-0.dtd"
   xmlns:inkscape="http://www.inkscape.org/namespaces/inkscape"
   height="22"
   class="BetaBadge"
   version="1.1"
   id="svg4"
   sodipodi:docname="betaIcon.svg"
   width="52"
   inkscape:version="0.92.1 r15371">
  <metadata
     id="metadata10">
    <rdf:RDF>
      <cc:Work
         rdf:about="">
        <dc:format>image/svg+xml</dc:format>
        <dc:type
           rdf:resource="http://purl.org/dc/dcmitype/StillImage" />
      </cc:Work>
    </rdf:RDF>
  </metadata>
  <defs
     id="defs8" />
  <sodipodi:namedview
     pagecolor="#fefzdv"
     bordercolor="#666666"
     borderopacity="1"
     objecttolerance="10"
     gridtolerance="10"
     guidetolerance="10"
     inkscape:pageopacity="0"
     inkscape:pageshadow="2"
     inkscape:window-width="1920"
     inkscape:window-height="991"
     id="namedview6"
     showgrid="false"
     inkscape:zoom="4.44"
     inkscape:cx="-30.518018"
     inkscape:cy="8"
     inkscape:window-x="-9"
     inkscape:window-y="-9"
     inkscape:window-maximized="1"
     inkscape:current-layer="svg4" />
  <path
     d="m 41,0 c 6.075,0 11,4.925 11,11 0,6.075 -4.925,11 -11,11 H 11 C 4.925,22 0,17.075 0,11 0,4.925 4.925,0 11,0 Z M 38.466,6.9 H 35.99 l -2.903,8.455 h 2.152 l 0.558,-1.918 h 2.862 l 0.558,1.918 h 2.153 z m -5.246,0 h -7.036 v 1.642 h 2.495 v 6.813 h 2.047 V 8.542 h 2.494 z m -8.305,0 h -5.79 v 8.455 h 5.79 v -1.642 h -3.742 v -1.859 h 3.523 v -1.511 h -3.523 v -1.8 h 3.742 z m -10.313,0 H 10.7 v 8.455 h 4.016 c 0.61,0 1.137,-0.1 1.58,-0.298 0.444,-0.199 0.787,-0.48 1.03,-0.844 0.243,-0.365 0.364,-0.793 0.364,-1.285 v -0.012 c 0,-0.357 -0.087,-0.683 -0.26,-0.977 a 2.048,2.048 0 0 0 -0.706,-0.714 2.116,2.116 0 0 0 -1.008,-0.304 v -0.11 c 0.3,-0.042 0.568,-0.149 0.804,-0.32 0.236,-0.17 0.423,-0.383 0.562,-0.64 C 17.221,9.595 17.29,9.316 17.29,9.015 V 9.004 C 17.29,8.569 17.183,8.194 16.97,7.879 16.755,7.565 16.449,7.323 16.05,7.154 15.65,6.984 15.167,6.9 14.602,6.9 Z m -1.855,4.728 h 1.382 c 0.317,0 0.585,0.043 0.804,0.128 0.218,0.086 0.384,0.211 0.498,0.377 0.113,0.166 0.17,0.37 0.17,0.611 v 0.012 c 0,0.37 -0.124,0.653 -0.372,0.85 -0.248,0.197 -0.608,0.295 -1.08,0.295 h -1.402 z m 24.536,-2.92 0.945,3.251 h -2.003 l 0.947,-3.251 h 0.11 z M 12.747,8.353 h 1.317 c 0.386,0 0.687,0.09 0.901,0.267 0.215,0.178 0.323,0.424 0.323,0.736 v 0.012 c 0,0.313 -0.116,0.558 -0.348,0.735 -0.231,0.177 -0.56,0.266 -0.984,0.266 h -1.209 z"
     id="path2"
     inkscape:connector-curvature="0"
     style="fill-rule:evenodd" />
</svg>
