<?xml version="1.0" encoding="UTF-8" standalone="no"?>
<svg
   xmlns:dc="http://purl.org/dc/elements/1.1/"
   xmlns:cc="http://creativecommons.org/ns#"
   xmlns:rdf="http://www.w3.org/1999/02/22-rdf-syntax-ns#"
   xmlns:svg="http://www.w3.org/2000/svg"
   xmlns="http://www.w3.org/2000/svg"
   xmlns:sodipodi="http://sodipodi.sourceforge.net/DTD/sodipodi-0.dtd"
   xmlns:inkscape="http://www.inkscape.org/namespaces/inkscape"
   class="cog"
   height="99.391083"
   width="93.337959"
   version="1.1"
   id="svg4"
   sodipodi:docname="cog.svg"
   inkscape:version="0.92.1 r15371">
  <metadata
     id="metadata10">
    <rdf:RDF>
      <cc:Work
         rdf:about="">
        <dc:format>image/svg+xml</dc:format>
        <dc:type
           rdf:resource="http://purl.org/dc/dcmitype/StillImage" />
      </cc:Work>
    </rdf:RDF>
  </metadata>
  <defs
     id="defs8" />
  <sodipodi:namedview
     pagecolor="#ffffff"
     bordercolor="#666666"
     borderopacity="1"
     objecttolerance="10"
     gridtolerance="10"
     guidetolerance="10"
     inkscape:pageopacity="0"
     inkscape:pageshadow="2"
     inkscape:window-width="1920"
     inkscape:window-height="991"
     id="namedview6"
     showgrid="false"
     inkscape:zoom="3.7926636"
     inkscape:cx="10.906286"
     inkscape:cy="90.117446"
     inkscape:window-x="-9"
     inkscape:window-y="-9"
     inkscape:window-maximized="1"
     inkscape:current-layer="svg4" />
  <path
     d="M 41.964466,3.0018199e-7 C 37.290537,3.0018199e-7 33.3047,3.379297 32.535056,7.9869657 l -0.907262,5.4639613 c -0.10194,0.611638 -0.586153,1.325215 -1.513803,1.773749 a 38.191661,38.191661 0 0 0 -5.025621,2.905278 c -0.846098,0.586152 -1.702391,0.642219 -2.29364,0.423049 L 17.611102,16.605957 A 9.556835,9.556835 0 0 0 5.9797968,20.780383 l -4.6994145,8.139874 a 9.556835,9.556835 0 0 0 2.2018948,12.156295 l 4.2814622,3.527109 c 0.484213,0.397564 0.8664864,1.167208 0.7849348,2.191701 a 38.726844,38.726844 0 0 0 0,5.805456 c 0.076455,1.019396 -0.3007218,1.794137 -0.7798378,2.191701 L 3.4822771,58.319628 A 9.556835,9.556835 0 0 0 1.2803823,70.475923 l 4.6994145,8.139874 a 9.556835,9.556835 0 0 0 11.6313052,4.169329 l 5.193822,-1.947046 c 0.586152,-0.21917 1.442445,-0.158006 2.29364,0.417952 1.590257,1.090754 3.267163,2.064277 5.020524,2.905278 0.92765,0.448534 1.411863,1.162111 1.513803,1.783943 l 0.907262,5.458864 c 0.769644,4.607669 4.755481,7.986965 9.42941,7.986965 h 9.398831 c 4.668832,0 8.659766,-3.379296 9.42941,-7.986965 l 0.907262,-5.463961 c 0.10194,-0.611638 0.581056,-1.325215 1.513803,-1.778846 1.753361,-0.841001 3.430267,-1.814524 5.020524,-2.905278 0.851195,-0.581055 1.707488,-0.637122 2.29364,-0.417952 l 5.198919,1.947046 A 9.556835,9.556835 0 0 0 87.353063,78.6107 l 4.704511,-8.139874 A 9.556835,9.556835 0 0 0 89.855679,58.314531 l -4.281462,-3.527109 c -0.484213,-0.397564 -0.866486,-1.167208 -0.784934,-2.191701 a 38.808396,38.808396 0 0 0 0,-5.805456 c -0.08155,-1.019396 0.300721,-1.794137 0.779837,-2.191701 l 4.281462,-3.527109 C 93.459243,38.105013 94.39199,32.967259 92.057574,28.91516 L 87.35816,20.775286 A 9.556835,9.556835 0 0 0 75.726855,16.605957 l -5.198919,1.947046 c -0.581055,0.21917 -1.437348,0.158006 -2.288543,-0.423049 A 38.17637,38.17637 0 0 0 63.218869,15.224676 C 62.286122,14.781239 61.807006,14.067662 61.705066,13.450927 L 60.792707,7.9869657 A 9.556835,9.556835 0 0 0 51.363297,3.0018199e-7 H 41.969563 Z M 46.663881,68.80921 a 19.11367,19.11367 0 1 0 0,-38.227337 19.11367,19.11367 0 0 0 0,38.227337 z"
     id="path2"
     style="fill-rule:evenodd;stroke-width:9.86028671"
     inkscape:connector-curvature="0" />
</svg>
