<?xml version="1.0" encoding="UTF-8" standalone="no"?>
<svg
   xmlns:dc="http://purl.org/dc/elements/1.1/"
   xmlns:cc="http://creativecommons.org/ns#"
   xmlns:rdf="http://www.w3.org/1999/02/22-rdf-syntax-ns#"
   xmlns:svg="http://www.w3.org/2000/svg"
   xmlns="http://www.w3.org/2000/svg"
   xmlns:sodipodi="http://sodipodi.sourceforge.net/DTD/sodipodi-0.dtd"
   xmlns:inkscape="http://www.inkscape.org/namespaces/inkscape"
   class="darkmode"
   height="100"
   width="100"
   version="1.1"
   id="svg4"
   sodipodi:docname="darkmode.svg"
   inkscape:version="0.92.1 r15371">
  <metadata
     id="metadata10">
    <rdf:RDF>
      <cc:Work
         rdf:about="">
        <dc:format>image/svg+xml</dc:format>
        <dc:type
           rdf:resource="http://purl.org/dc/dcmitype/StillImage" />
      </cc:Work>
    </rdf:RDF>
  </metadata>
  <defs
     id="defs8" />
  <sodipodi:namedview
     pagecolor="#ffffff"
     bordercolor="#666666"
     borderopacity="1"
     objecttolerance="10"
     gridtolerance="10"
     guidetolerance="10"
     inkscape:pageopacity="0"
     inkscape:pageshadow="2"
     inkscape:window-width="1920"
     inkscape:window-height="991"
     id="namedview6"
     showgrid="false"
     inkscape:zoom="0.47408295"
     inkscape:cx="-818.85566"
     inkscape:cy="279.60257"
     inkscape:window-x="-9"
     inkscape:window-y="-9"
     inkscape:window-maximized="1"
     inkscape:current-layer="svg4" />
  <path
     d="m 35.938338,1.0836462 a 3.7034561,3.7034561 0 0 1 0.799947,4.044174 44.293335,44.293335 0 0 0 -3.40718,17.1000918 44.441474,44.441474 0 0 0 44.441474,44.441474 44.293335,44.293335 0 0 0 17.100092,-3.40718 3.7034561,3.7034561 0 0 1 4.844119,4.839183 51.8632,51.8632 0 0 1 -47.868404,31.899101 C 23.213263,100.00049 0,76.787228 0,48.152105 0,26.583176 13.16949,8.0955232 31.899102,0.28370023 a 3.7034561,3.7034561 0 0 1 4.039236,0.79994597 z"
     id="path2"
     style="fill-rule:evenodd;stroke-width:1.93453562"
     inkscape:connector-curvature="0" />
</svg>
