<?xml version="1.0" encoding="UTF-8" standalone="no"?>
<svg
   xmlns:dc="http://purl.org/dc/elements/1.1/"
   xmlns:cc="http://creativecommons.org/ns#"
   xmlns:rdf="http://www.w3.org/1999/02/22-rdf-syntax-ns#"
   xmlns:svg="http://www.w3.org/2000/svg"
   xmlns="http://www.w3.org/2000/svg"
   xmlns:sodipodi="http://sodipodi.sourceforge.net/DTD/sodipodi-0.dtd"
   xmlns:inkscape="http://www.inkscape.org/namespaces/inkscape"
   class="sun"
   height="100"
   width="100"
   version="1.1"
   id="svg4"
   sodipodi:docname="sun.svg"
   inkscape:version="0.92.1 r15371">
  <metadata
     id="metadata10">
    <rdf:RDF>
      <cc:Work
         rdf:about="">
        <dc:format>image/svg+xml</dc:format>
        <dc:type
           rdf:resource="http://purl.org/dc/dcmitype/StillImage" />
      </cc:Work>
    </rdf:RDF>
  </metadata>
  <defs
     id="defs8" />
  <sodipodi:namedview
     pagecolor="#ffffff"
     bordercolor="#666666"
     borderopacity="1"
     objecttolerance="10"
     gridtolerance="10"
     guidetolerance="10"
     inkscape:pageopacity="0"
     inkscape:pageshadow="2"
     inkscape:window-width="1920"
     inkscape:window-height="991"
     id="namedview6"
     showgrid="false"
     inkscape:zoom="3.7926636"
     inkscape:cx="36.973533"
     inkscape:cy="-24.656714"
     inkscape:window-x="-9"
     inkscape:window-y="-9"
     inkscape:window-maximized="1"
     inkscape:current-layer="svg4" />
  <path
     d="m 50,0 a 3.8461538,3.8461538 0 0 1 3.846154,3.846154 v 11.538461 a 3.846154,3.846154 0 0 1 -7.692308,0 V 3.846154 A 3.8461538,3.8461538 0 0 1 50,0 Z M 26.923077,50 a 23.076923,23.076923 0 1 1 46.153846,0 23.076923,23.076923 0 0 1 -46.153846,0 z M 85.353846,20.082051 A 3.8461538,3.8461538 0 0 0 79.917949,14.646154 L 71.758974,22.8 a 3.8461538,3.8461538 0 1 0 5.435898,5.441026 l 8.158974,-8.153847 z M 100,50 a 3.8461538,3.8461538 0 0 1 -3.846154,3.846154 H 84.615385 a 3.846154,3.846154 0 0 1 0,-7.692308 H 96.153846 A 3.8461538,3.8461538 0 0 1 100,50 Z M 79.917949,85.353846 a 3.8461538,3.8461538 0 0 0 5.435897,-5.435897 L 77.2,71.758974 a 3.8461538,3.8461538 0 1 0 -5.441026,5.435898 l 8.153847,8.158974 z M 50,80.769231 a 3.8461538,3.8461538 0 0 1 3.846154,3.846154 v 11.538461 a 3.846154,3.846154 0 0 1 -7.692308,0 V 84.615385 A 3.8461538,3.8461538 0 0 1 50,80.769231 Z M 28.246154,77.194872 a 3.8461538,3.8461538 0 0 0 -5.441026,-5.435898 l -8.158974,8.153846 a 3.8461538,3.8461538 0 0 0 5.435897,5.441026 L 28.241026,77.2 Z M 19.230769,50 a 3.8461538,3.8461538 0 0 1 -3.846154,3.846154 H 3.8461539 a 3.846154,3.846154 0 0 1 0,-7.692308 H 15.384615 A 3.8461538,3.8461538 0 0 1 19.230769,50 Z m 3.574359,-21.758974 a 3.8461538,3.8461538 0 0 0 5.435898,-5.435898 l -8.153847,-8.158974 a 3.8461538,3.8461538 0 0 0 -5.441025,5.435897 L 22.8,28.241026 Z"
     id="path2"
     style="fill-rule:evenodd;stroke-width:9.9206953"
     inkscape:connector-curvature="0" />
</svg>
